<?xml version="1.0" encoding="UTF-8"?> <!-- Generator: Adobe Illustrator 23.0.4, SVG Export Plug-In . SVG Version: 6.00 Build 0) --> <svg xmlns="http://www.w3.org/2000/svg" xmlns:xlink="http://www.w3.org/1999/xlink" version="1.1" id="Layer_1" x="0px" y="0px" viewBox="0 0 543.1 351.4" style="enable-background:new 0 0 543.1 351.4;" xml:space="preserve"> <style type="text/css"> .st0{fill:#DDD2C8;} .st1{enable-background:new ;} </style> <g> <path class="st0" d="M169.8,152.6c-4.8,0.9-10.5,1.7-16.1,2.5c-1.5,0.2-3,0.4-4.4,0.6l-1.5-7.5l-0.2-1.1c0.4-0.4,0.8-0.8,1.1-1.2 c3-0.1,5.7-0.2,8-0.2c1.5,0,2.9,0,4,0.1c0.7,0,1.4,0,2,0c5.4,0,9-1,11-3.1c2-2,2.1-4.6,2.1-6.6c1,1.4,2.6,5.4,2.1,9.1 C177.3,149.2,174.6,151.7,169.8,152.6L169.8,152.6z M141.2,151.7c0.4,0,0.7-0.1,1-0.3c0.1-0.1,0.3-0.2,0.7-0.5 c-0.9,2.1-2.3,4.8-3.9,6.2c-0.1,0.1-0.1,0.1-0.2,0.2c-8.5,1.6-12.8,3.2-13.9,5.5l-0.9,1.7l-0.4,0.9l-1.2,1 c-1.3-0.6-3.5-1.5-6.4-2.1c-3.5-0.7-7.3-2.4-8-4.6c-0.4-1.1,0.1-2.4,1.3-3.9c1.8-2.1,3.2-4.5,4.7-6.7c0.2-0.3,0.4-0.6,0.6-0.9 c4.6-0.4,15.5-1.4,26.2-2.1c-0.2,1.4-0.6,2-0.7,2.1c-0.4,0.4-0.7,0.9-0.7,1.4C139.4,150.9,140.2,151.7,141.2,151.7L141.2,151.7z M65.1,126c-2.1-3.1-1.7-7.2,0.1-11.1c2.3,1.8,5.7,4.9,5.9,7.6c0.2,4.1,5.1,3.7,8.6,7.2c2.2,2.2,0.3,3.8-1.4,4.6 c0.3-0.6,0.6-1.2,0.8-1.8C79.1,132.6,69.4,132.2,65.1,126L65.1,126z M9.9,189c9.6,6.5,17.9,3.1,17.9,3.1c-17,0.3-19.1-13-19.1-13 c15.7,11.1,32.1-12.3,32.1-12.3c-4.9,6.8-24.2-0.4-18.4-0.4c10.7,0,15.6-15.7,15.6-15.7c-13.9,7.1-23.4-11.1-23.4-11.1 c6.8,4.9,15.1,0.6,21.9-9.9c4.2-6.5,7.5-13.4,9.3-17.7c-2.8-1.1-5.4-3.5-6.3-8.3c-2.2-11.7,10.8-16,10.8-16 c-4.6,11.7,4.3,12,11.1,12s9.9-7.1,9.9-7.1s-9.9-8.6-6.8-15.1c12.3-17.6,23.8-0.9,23.8-0.9s-6.8-2.8-6.8,3.1 c0,5.9,17.3,10.5,24.7,10.5s11.1,0.6,21.3,6.2c10.2,5.6,29.9,9.2,34.8,10.2s2.5,4.6,0.9,13.6c-1.5,8.9-12,14.8-12,14.8 c1.2,7.7-9.9,14.8-9.9,14.8s1.5-0.9,1.5-6.5s-7.4-9.2-17-7.1s-12,11.4-17.9,18.5s3.4,10.5,7.7,11.4c4.3,0.9,7.1,2.5,7.1,2.5 s0,0,2.2-1.9s12.3-5.6,15.4-8.3s5.6-9.9,5.6-9.9l1.9,8.9c0,0,2.8,0.9,7.7,1.5c4.9,0.6,1.2,8,1.2,8c2.6,7.3-0.4,12.9-4,16.6 c0,0-7.3,4.1-8,3.8c-1.4-4-8.2-7.6-15.2-8.1c-2-0.1-3.7,0.4-5.1,1.3c-6-0.6-12.6,0.3-19.5,3.9c0,0-28.1-29,7.4-50.6 c0,0-21.9,9.9-20.7,28.1c0.3,4.8,1.4,8.8,2.8,12.2c-5.2-0.4-18.9-1.1-22.7,0.8c0,0,4.3-11.1,1-14.6c0,0-7.6,1.2-13.2-6.4 c0,0,11.9,1.4,15.8-8c0,0-6.4,0.4-8.4-1.9c0,0,7.4-4.2,10.8-9.2c1.9-0.1,5-0.7,5-4.2c0-4.9-7-5.3-7.6-7.4c-0.6-2.1-0.6-4.9,1.6-6.2 c2.3-1.2,3.9,2.1,3.9,2.1s0-2.7,0.4-4.5s-1.8-4.1-4.1-4.1c-1.8,0-5.3-2.7-6.8-3.8c0.9-1,1.8-2,2.7-2.8c5.8-5.3,10.5,4.3,11.1,7.2 c0.6,2.9,1,6-1,8.4c0,0,8.8-5.1,1.8-12.3c0,0-6-7.8-11.3-5.8c-5.3,2.1-16,16.7-11.3,24.1c4.7,7.4,11.5,8.4,11.5,8.4s-2.3,7.6-9.1,9 c0,0,1,3.9,5.1,3.9c0,0-2.1,7.6-12.3,4.7c0,0,2.1,10.1,12.1,10.5c0,0,3.9,7.8-2.1,14.4c0,0,21.4-0.2,30.3,4c3.3,4.8,6.7,7,6.7,7 s8-3.3,17-4c-2,3.3-2.1,7.6,0.2,10.2c4.3,4.6,15.7-3.4,15.7-3.4c-1.2,3.4-3.7,12.9,9.9,17.6s14.8-8.3,14.8-8.3 c6.7,6.3,5.4,11.9,2.8,15.6c-4.4,1.9-12.3,4.1-21,0.9c0,0,7.8,5.2,16.1,5.7c11.9,7.1,9.8,18.9,11.6,25c1.9,6.2,20.7,4.7,20.7,4.7 c-4.2,12.8-35.8-1.9-35.8-1.9c0.7,16.3-12.3,13.9-12.3,13.9c7.4-15.7-8.3-21.6-8.3-21.6s10.5,8,5.2,18.5 c-5.2,10.5-21.3,8.3-21.3,8.3c24.7-10.8,0.9-26.2,0.9-26.2c0.6,15.4-13.3,20.7-13.3,20.7c2.5-10.5-5.6-19.1-5.6-19.1 s2.8,12.3-2.5,20.4c-5.2,8-15.1,12.6-15.1,12.6c18.3-27.3-1.1-41.4-1.1-41.4s6.2,12.8,4.5,16.9c-5.6,13.8-20.1,5.1-20.1,5.1 s11.1,2.5,13.9-7.1s-9.9-22.8-9.9-22.8s1.2,17.9-11.4,23.8c-12.6,5.9-21.3-6.2-21.3-6.2s13.9,3.4,17.9-5.6s-4.6-10.8-6.5-4.6 c-1.8,6.2-13.6,7.4-13.6,7.4c4.5-1.3,3.8-7.3,3.5-9.1c0.2,1.5-0.4,6.2-12.1,9.1c-14.2,3.4-16-12-16-12s1.5,4.9,10.8,3.4 s10.5-11.7-1.2-9.6s-11.4-13.3-11.4-13.3c0.6,4.9,10.5,7.1,12.3,1.5c1-2.9,5.2-5.3,9-7c-1.2,0.1-2.5,0.2-4.1,0.2 C11.4,206.6,9.9,189,9.9,189L9.9,189z M154.1,115.5c6.2-1.7,7.2,5.1,7.2,5.1c1.4-9.1-10.8-8.9-10.8-8.9 C146.5,112.1,147.9,117.2,154.1,115.5L154.1,115.5z M110.3,112.6c0,0,2.5,3.5-1.2,6.8c0,0,13.6-0.4,14.2-6.6c0,0,1.4-3.1,5.1,0 c0,0-3.1-10.1-11.3-10.1c-8.2,0-9.7,11.5-20.8,6.2C96.3,108.9,104.1,115.9,110.3,112.6L110.3,112.6z"></path> <g class="st1"> <path class="st0" d="M239.6,197.2c16.9,2.6,30.3,10.1,30.3,27.2c0,11.5-6.3,20.2-16.4,25.8c-8.7,4.8-20,6.8-33.5,6.8h-37.8v-4.8 c14.7-1,15.7-2.1,15.7-16.4v-68.9c0-14.2-0.7-15.2-14.4-16.2v-4.8h43.9c12.8,0,20.3,2.1,25.7,5.8c6.2,4.1,9.6,11.6,9.6,19.5 c0,16.2-13.5,22.9-23.1,25.5V197.2z M220.3,195.1c18.8,0,26.7-7.5,26.7-21.9c0-11.6-6.5-21.9-22.7-21.9c-4.3,0-8,0.7-9.7,1.7 c-1.5,1-2.2,2.9-2.2,8.5v33.5H220.3z M212.2,235.7c0,12.3,3.2,15.6,14.2,15.6c14-0.2,26.5-7.4,26.5-25.1c0-17.6-12-25.3-32.8-25.3 h-7.9V235.7z"></path> </g> <g class="st1"> <path class="st0" d="M329.2,257v-4.8c10.8-1.4,12.3-2.7,10.1-9.4c-2.2-6.7-5.6-15.9-9.4-26.3h-36.4c-2.7,7.7-5.3,14.9-7.5,22.1 c-3.8,10.8-2.2,12.5,10.6,13.7v4.8h-37.1v-4.8c10.8-1.5,13.2-2.6,19.2-17.6l35.4-89.8l5.3-1.5c10.6,29.4,22.1,61.9,33,91.7 c5.5,14.7,7.7,16.2,18.8,17.3v4.8H329.2z M312.4,165.5h-0.3c-5.5,14.7-10.9,29.6-16.1,43.6h31.5L312.4,165.5z"></path> </g> <g class="st1"> <path class="st0" d="M471,258.4c-2.1,0-3.9,0-6-0.2c-12.8-0.7-20-4.4-27.7-15.6c-6-8.4-12.1-19-17.3-27.4 c-2.9-4.8-5.8-6.8-14.7-6.8h-5.5v27.2c0,14.5,1.5,15.6,15.2,16.6v4.8h-45v-4.8c14-1,15.6-2.1,15.6-16.6v-68.7 c0-14.5-1.4-15-14.7-16.2v-4.8h42.4c12.5,0,20.9,1.5,27.4,5.8c6.8,4.4,11.3,12.1,11.3,22.4c0,14.7-9.1,23.8-21.7,29.2 c2.9,5.6,10.1,17.1,15.2,24.8c6.2,8.9,9.7,13.3,13.9,17.8c4.6,5.1,8.6,7,12.3,8L471,258.4z M408.1,202.8c8.7,0,14.4-1.4,18.6-4.8 c6.7-5.1,9.4-12,9.4-21.2c0-18.5-12.1-25.3-25.1-25.3c-5,0-7.9,0.7-9.2,1.7c-1.2,0.9-1.9,2.9-1.9,7.5v42.1H408.1z"></path> </g> <path class="st0" d="M501.5,146.5c-22.2,0-35.1,20.1-35.1,36.7c0,18.1,12.6,31.5,30.8,31.5c3.3,0,6.5-0.7,10.3-2.8l11.5-6.2 c-5.7,26.2-23.5,43.9-48.1,48l-0.1,4.6c5.1,0.3,14.8-1.7,24.1-5.5c23.2-9.3,40.6-31.7,40.6-63.3C535.6,166.1,523,146.5,501.5,146.5 L501.5,146.5z M499.2,152.2c16.7,0,21.2,21.4,21.2,36.5c0,3.4-0.2,7.6-0.7,11.4c-3.6,2.8-9.5,4.8-15.5,4.8 c-14.5,0-23.1-12.6-23.1-27.7C481.2,167,486,152.2,499.2,152.2L499.2,152.2z"></path> </g> </svg> 